<svg xmlns="http://www.w3.org/2000/svg" viewBox="0 0 100 100">
  <defs>
    <linearGradient id="grad" x1="0%" y1="0%" x2="100%" y2="100%">
      <stop offset="0%" style="stop-color:#628EFB;stop-opacity:1" />
      <stop offset="100%" style="stop-color:#4267B2;stop-opacity:1" />
    </linearGradient>
  </defs>
  <rect width="100" height="100" rx="20" fill="url(#grad)"/>
  <path d="M50 20 C35 20 25 32 25 47 C25 62 35 75 50 80 C65 75 75 62 75 47 C75 32 65 20 50 20 Z M50 70 C40 70 32 60 32 47 C32 34 40 27 50 27 C60 27 68 34 68 47 C68 60 60 70 50 70 Z" fill="white"/>
  <circle cx="50" cy="47" r="10" fill="white"/>
  <rect x="47" y="52" width="6" height="15" rx="3" fill="white"/>
</svg>
